<?xml version="1.0" encoding="UTF-8"?>
<svg id="Layer_2" data-name="Layer 2" xmlns="http://www.w3.org/2000/svg" viewBox="0 0 512.2 104.34">
  <defs>
    <style>
      .cls-1, .cls-2, .cls-3 {
        stroke-width: 0px;
      }

      .cls-2 {
        fill: #2b388f;
      }

      .cls-3 {
        fill: #fc9c03;
      }
    </style>
  </defs>
  <g id="Layer_1-2" data-name="Layer 1">
    <g>
      <path class="cls-2" d="m512.2,0v54.24h-19.06l-28.21-29.52v29.52h-20.92V0h22.94l24.33,26.11V0h20.92Z"/>
      <polyline class="cls-2" points="323.67 18.13 323.67 18.13 339.58 53.78 339.79 54.24 362.57 54.24 335.6 0 312.05 0 285.08 54.24 307.55 54.24"/>
      <path class="cls-2" d="m25.88,39.36c7.52,0,10.07-4.73,10.07-11.62V0h21.7v29.44c0,16.19-11.31,26.66-31.3,26.66-12.09,0-20.38-3.87-26.35-10.54l13.72-12.4c3.64,4.18,7.21,6.2,12.17,6.2Z"/>
      <path class="cls-2" d="m206.27,0v54.24h-21.7v-19.22h-24.8v19.22h-21.7V0h21.7v18.44h24.8V0h21.7Z"/>
      <path class="cls-2" d="m434.4,0v54.24h-19.06l-28.21-29.52v29.52h-20.92V0h22.94l24.33,26.11V0h20.92Z"/>
      <polygon class="cls-2" points="260.44 0 236.88 0 209.92 54.24 232.39 54.24 248.51 18.13 264.62 54.24 287.41 54.24 260.44 0"/>
      <polyline class="cls-2" points="95.54 18.13 111.82 54.24 134.44 54.24 107.48 0 83.92 0 56.96 54.24 79.43 54.24"/>
    </g>
    <g>
      <path class="cls-1" d="m138.07,98.63v-21.47h10.06c4.08,0,6.13,1.67,6.13,5,0,2.44-1.33,4.19-3.99,5.24,2.84.53,4.26,2.16,4.26,4.88,0,4.23-2.24,6.35-6.71,6.35h-9.74Zm9.58-3.45c1.76,0,2.64-.9,2.64-2.7,0-2.23-1.32-3.35-3.95-3.35h-1.2v-2.57c3.3-.55,4.96-1.93,4.96-4.14,0-1.2-.74-1.8-2.22-1.8h-5.83v14.56h5.6Z"/>
      <path class="cls-1" d="m171.72,82.87v15.77h-3.11l-.48-2.01c-1.81,1.34-3.73,2.01-5.77,2.01-3.22,0-4.83-1.91-4.83-5.72v-10.04h3.98v9.94c0,1.74.76,2.61,2.28,2.61,1.29,0,2.61-.52,3.95-1.55v-11.01h3.98Z"/>
      <path class="cls-1" d="m179.45,77.16v3.15h-3.98v-3.15h3.98Zm0,5.71v15.77h-3.98v-15.77h3.98Z"/>
      <path class="cls-1" d="m187.19,77.16v21.47h-3.98v-21.47h3.98Z"/>
      <path class="cls-1" d="m204.91,97.69c-2.41.63-4.77.95-7.07.95-5.1,0-7.64-2.73-7.64-8.2,0-5.04,2.49-7.57,7.48-7.57,1.06,0,2.15.25,3.26.75v-6.46h3.98v20.53Zm-3.98-10.71c-.82-.54-1.85-.81-3.09-.81-2.47,0-3.71,1.39-3.71,4.16,0,3.29,1.29,4.94,3.86,4.94,1.04,0,2.02-.15,2.94-.44v-7.85Z"/>
      <path class="cls-1" d="m212.64,77.16v3.15h-3.98v-3.15h3.98Zm0,5.71v15.77h-3.98v-15.77h3.98Z"/>
      <path class="cls-1" d="m216.39,98.63v-15.77h3.08l.5,2.31c1.51-1.54,3.23-2.31,5.17-2.31,3.73,0,5.6,1.94,5.6,5.83v9.94h-3.98v-9.94c0-1.74-.87-2.61-2.6-2.61-1.29,0-2.55.52-3.78,1.55v11.01h-3.98Z"/>
      <path class="cls-1" d="m248.55,97.43c0,4.6-2.77,6.91-8.3,6.91-1.94,0-3.66-.25-5.17-.75v-3.15c1.53.5,3.26.75,5.2.75,2.86,0,4.29-1.2,4.29-3.6-1.18.5-2.45.75-3.81.75-4.69,0-7.03-2.56-7.03-7.67s2.73-7.79,8.18-7.79c1.83,0,4.04.22,6.64.65v13.92Zm-3.98-10.99c-.65-.24-1.58-.36-2.78-.36-2.75,0-4.13,1.52-4.13,4.55s1.19,4.4,3.56,4.4c1.14,0,2.26-.27,3.35-.81v-7.78Z"/>
      <path class="cls-1" d="m258.31,93.72c0-3.13,2.28-4.7,6.85-4.7,1.07,0,2.14.1,3.21.3v-1.19c0-1.41-1.02-2.12-3.05-2.12-1.72,0-3.63.25-5.74.75v-3.15c2.1-.5,4.01-.75,5.74-.75,4.68,0,7.03,1.73,7.03,5.2v10.57h-2.31l-1.41-1.41c-1.37.94-2.88,1.41-4.53,1.41-3.85,0-5.78-1.64-5.78-4.91Zm6.85-2c-1.91,0-2.87.65-2.87,1.95,0,1.4.8,2.1,2.4,2.1,1.32,0,2.55-.41,3.68-1.23v-2.52c-1-.2-2.07-.3-3.21-.3Z"/>
      <path class="cls-3" d="m282.86,97.73v-3.6c2.15.8,4.58,1.2,7.3,1.2,3.29,0,4.94-1.1,4.94-3.3,0-1.6-1.01-2.4-3.03-2.4h-3.36c-4.39,0-6.59-2-6.59-6.01,0-4.4,3.13-6.61,9.38-6.61,2.4,0,4.68.35,6.83,1.05v3.6c-2.15-.8-4.43-1.2-6.83-1.2-3.6,0-5.41,1.05-5.41,3.15,0,1.6.87,2.4,2.61,2.4h3.36c4.67,0,7.01,2,7.01,6.01,0,4.5-2.97,6.76-8.92,6.76-2.71,0-5.15-.35-7.3-1.05Z"/>
      <path class="cls-3" d="m302.46,98.63v-21.47h4.13l7.28,16.29,7.13-16.29h3.98v21.47h-3.68v-14.95l-5.83,14.95h-3.39l-5.95-14.95v14.95h-3.68Z"/>
      <path class="cls-3" d="m331.69,98.63h-4.08l9.11-21.47h4.28l9.31,21.47h-4.28l-2.45-5.86h-7.13l1.37-3.45h4.32l-3.38-8.06-7.07,17.37Z"/>
      <path class="cls-3" d="m352.94,98.6v-21.44h9.76c4.38,0,6.58,1.92,6.58,5.75,0,2.59-1.71,4.74-5.12,6.44l6.8,9.28h-5.01l-6.53-9.35v-1.82c3.8-.65,5.71-2.13,5.71-4.43,0-1.58-.89-2.37-2.67-2.37h-5.45v17.94h-4.05Z"/>
      <path class="cls-3" d="m386.87,77.16v3.45h-6.16v18.02h-3.98v-18.02h-6.16v-3.45h16.29Z"/>
      <path class="cls-3" d="m403.82,77.16v3.42h-10.75v5.41h10.24v3.56h-10.29v5.63h11.01v3.45h-14.91v-21.47h14.7Z"/>
      <path class="cls-3" d="m407.71,98.6v-21.44h9.76c4.38,0,6.58,1.92,6.58,5.75,0,2.59-1.71,4.74-5.12,6.44l6.8,9.28h-5.01l-6.53-9.35v-1.82c3.8-.65,5.71-2.13,5.71-4.43,0-1.58-.89-2.37-2.67-2.37h-5.45v17.94h-4.05Z"/>
      <path class="cls-1" d="m432.64,77.16h4.04l2.3,15.42,5.59-15.42h3.83l5.23,14.82,2.43-14.82h3.92l-4.04,21.47h-3.78l-5.9-16.85-6.34,16.85h-3.74l-3.53-21.47Z"/>
      <path class="cls-1" d="m461.62,90.75c0-5.29,2.6-7.93,7.81-7.93s7.81,2.64,7.81,7.93-2.6,7.91-7.81,7.91-7.79-2.64-7.81-7.91Zm7.81,4.88c2.55,0,3.83-1.65,3.83-4.94s-1.28-4.82-3.83-4.82-3.83,1.61-3.83,4.82,1.28,4.94,3.83,4.94Z"/>
      <path class="cls-1" d="m480.23,98.63v-15.77h3.08l.5,2.01c1.38-1.34,2.84-2.01,4.38-2.01v3.21c-1.48,0-2.81.62-3.98,1.85v10.71h-3.98Z"/>
      <path class="cls-1" d="m494.42,77.16v21.47h-3.98v-21.47h3.98Z"/>
      <path class="cls-1" d="m512.14,97.69c-2.41.63-4.77.95-7.07.95-5.1,0-7.64-2.73-7.64-8.2,0-5.04,2.49-7.57,7.48-7.57,1.06,0,2.15.25,3.26.75v-6.46h3.98v20.53Zm-3.98-10.71c-.82-.54-1.85-.81-3.09-.81-2.47,0-3.71,1.39-3.71,4.16,0,3.29,1.29,4.94,3.86,4.94,1.04,0,2.02-.15,2.94-.44v-7.85Z"/>
    </g>
  </g>
</svg>